<svg xmlns="http://www.w3.org/2000/svg" id="SvgjsSvg246909" width="4096" height="1200.7025802424407" version="1.1" xmlns:xlink="http://www.w3.org/1999/xlink" xmlns:svgjs="http://svgjs.com/svgjs"><defs id="SvgjsDefs246910"></defs><g id="SvgjsG246911" transform="translate(328, 328) scale(34.4)" opacity="1"><defs id="SvgjsDefs104859"><linearGradient id="SvgjsLinearGradientkN-7P7kf3j" gradientUnits="userSpaceOnUse" x1="4.2632564145606005e-14" y1="99.99999999999997" x2="99.99999999999999" y2="-3.5527136788005e-15"><stop id="SvgjsStop104862" stop-color="#ff383f" offset="0.05"></stop><stop id="SvgjsStop104863" stop-color="#b80006" offset="0.95"></stop></linearGradient></defs><g id="SvgjsG104860" transform="scale(0.13641105780773244)" opacity="1"><g id="SvgjsG104864" class="tuU6ASfYui" transform="translate(-7.105427357601002e-15, -7.105427357601002e-15) scale(1.1607840000000003)" light-content="false" fill="url(#SvgjsLinearGradientkN-7P7kf3j)"><path d="M24 0h76v76c0 13.255-10.745 24-24 24H0V24C0 10.745 10.745 0 24 0z"></path></g><g id="SvgjsG104865" class="-GfK7Oscp1B" transform="translate(13.800011345978271, 13.811068378883547) scale(0.8845626324223291)" light-content="true" fill="#ffffff"><path d="M93 46.9L74.7 28.6c-.8-.8-1.9-1.3-3.1-1.3-1.2 0-2.3.5-3.1 1.3l-7.7 7.7-7.7-7.7c-.8-.8-1.9-1.3-3.1-1.3-1.2 0-2.3.5-3.1 1.3l-7.7 7.7-7.7-7.7c-.8-.8-1.9-1.3-3.1-1.3s-2.3.5-3.1 1.3L7 46.9c-1.7 1.7-1.7 4.5 0 6.2l18.3 18.3c.8.8 1.9 1.3 3.1 1.3s2.3-.5 3.1-1.3l7.7-7.7 7.7 7.7c.8.8 1.9 1.3 3.1 1.3 1.2 0 2.3-.5 3.1-1.3l7.7-7.7 7.7 7.7c.8.8 1.9 1.3 3.1 1.3 1.2 0 2.3-.5 3.1-1.3L93 53.1c.8-.8 1.3-1.9 1.3-3.1s-.5-2.3-1.3-3.1zM60.8 60.8l-9.1-9.1c-.4-.4-.7-1-.7-1.7s.2-1.2.7-1.7l9.1-9.1 9.1 9.1c.9.9.9 2.4 0 3.3l-9.1 9.2zM48.3 48.3c.4.4.7 1 .7 1.7s-.2 1.2-.7 1.7l-9.1 9.1-9.2-9.1c-.9-.9-.9-2.4 0-3.3l9.1-9.1 9.2 9z"></path></g><g id="SvgjsG104866" class="text" transform="translate(442.97839999999997, 59.574200000000005) scale(1)" light-content="false" fill="#3b3b3b"><path d="M-288.9 -41.94L-288.9 0L-274.68 0L-274.68 -14.7L-263.16 -14.7L-263.16 0L-248.94 0L-248.94 -41.94L-263.16 -41.94L-263.16 -27.9L-274.68 -27.9L-274.68 -41.94Z M-244.74 -41.94L-244.74 0L-213.66 0L-213.66 -11.94L-230.52 -11.94L-230.52 -15.6L-218.58 -15.6L-218.58 -26.34L-230.52 -26.34L-230.52 -30L-213.66 -30L-213.66 -41.94Z M-198.18 -16.02L-198.18 0L-183.96 0L-183.96 -16.02L-168.18 -41.94L-183.3 -41.94L-191.04 -28.68L-198.18 -41.94L-213.36 -41.94Z M-165.18 -41.94L-165.18 0L-149.1 0C-141.9 0 -136.23 -1.79 -132.09 -5.37C-127.95 -8.95 -125.88 -14.22 -125.88 -21.18C-125.88 -25.42 -126.84 -29.1 -128.76 -32.22C-130.68 -35.34 -133.39 -37.74 -136.89 -39.42C-140.39 -41.1 -144.46 -41.94 -149.1 -41.94ZM-148.14 -13.2L-150.96 -13.2L-150.96 -28.74L-148.14 -28.74C-145.66 -28.74 -143.74 -28.09 -142.38 -26.79C-141.02 -25.49 -140.34 -23.62 -140.34 -21.18C-140.34 -15.86 -142.94 -13.2 -148.14 -13.2Z M-111.18 -41.94L-127.98 0L-113.4 0L-110.7 -7.32L-98.22 -7.32L-95.52 0L-80.94 0L-97.74 -41.94ZM-101.34 -17.76L-107.58 -17.76L-104.46 -27.42Z M-72.36 -16.02L-72.36 0L-58.14 0L-58.14 -16.02L-42.36 -41.94L-57.48 -41.94L-65.22 -28.68L-72.36 -41.94L-87.54 -41.94Z M-22.56 -41.94L-5.76 0L7.68 0L24.48 -41.94L9.6 -41.94L0.96 -18.42L-7.68 -41.94Z M27.48 -41.94L27.48 0L58.56 0L58.56 -11.94L41.7 -11.94L41.7 -15.6L53.64 -15.6L53.64 -26.34L41.7 -26.34L41.7 -30L58.56 -30L58.56 -41.94Z M61.56 -41.94L61.56 0L75.18 0L75.18 -19.56L87.66 0L100.2 0L100.2 -41.94L86.58 -41.94L86.58 -22.44L74.1 -41.94Z M113.04 -30L113.04 0L127.26 0L127.26 -30L138 -30L138 -41.94L102.3 -41.94L102.3 -30Z M148.68 -1.68C151.72 0.04 155.5 0.9 160.02 0.9C164.54 0.9 168.32 0.04 171.36 -1.68C174.4 -3.4 176.64 -5.74 178.08 -8.7C179.52 -11.66 180.24 -15.06 180.24 -18.9L180.24 -41.94L165.96 -41.94L165.96 -19.32C165.96 -16.96 165.49 -15.18 164.55 -13.98C163.61 -12.78 162.1 -12.18 160.02 -12.18C157.94 -12.18 156.42 -12.78 155.46 -13.98C154.5 -15.18 154.02 -16.96 154.02 -19.32L154.02 -41.94L139.8 -41.94L139.8 -18.9C139.8 -15.06 140.52 -11.66 141.96 -8.7C143.4 -5.74 145.64 -3.4 148.68 -1.68Z M184.14 -41.94L184.14 0L198.12 0L198.12 -11.46L200.82 -11.46L206.34 0L220.68 0L214.08 -13.62C216.36 -14.86 218.12 -16.57 219.36 -18.75C220.6 -20.93 221.22 -23.58 221.22 -26.7C221.22 -31.66 219.7 -35.44 216.66 -38.04C213.62 -40.64 209.5 -41.94 204.3 -41.94ZM201.3 -22.08L198.12 -22.08L198.12 -31.32L201.3 -31.32C204.94 -31.32 206.76 -29.78 206.76 -26.7C206.76 -23.62 204.94 -22.08 201.3 -22.08Z M224.22 -41.94L224.22 0L255.3 0L255.3 -11.94L238.44 -11.94L238.44 -15.6L250.38 -15.6L250.38 -26.34L238.44 -26.34L238.44 -30L255.3 -30L255.3 -41.94Z M263.94 0.06C266.74 0.62 269.52 0.9 272.28 0.9C278.24 0.9 282.7 -0.25 285.66 -2.55C288.62 -4.85 290.1 -8.02 290.1 -12.06C290.1 -14.34 289.78 -16.23 289.14 -17.73C288.5 -19.23 287.42 -20.57 285.9 -21.75C284.38 -22.93 282.2 -24.12 279.36 -25.32L277.14 -26.22C275.42 -26.9 274.23 -27.44 273.57 -27.84C272.91 -28.24 272.58 -28.74 272.58 -29.34C272.58 -30.58 274 -31.2 276.84 -31.2C280.36 -31.2 283.92 -30.2 287.52 -28.2L287.52 -40.14C285.6 -41.06 283.58 -41.74 281.46 -42.18C279.34 -42.62 276.92 -42.84 274.2 -42.84C270.88 -42.84 267.93 -42.28 265.35 -41.16C262.77 -40.04 260.77 -38.49 259.35 -36.51C257.93 -34.53 257.22 -32.26 257.22 -29.7C257.22 -26.74 258.09 -24.23 259.83 -22.17C261.57 -20.11 264.36 -18.24 268.2 -16.56C270.8 -15.4 272.5 -14.57 273.3 -14.07C274.1 -13.57 274.5 -12.96 274.5 -12.24C274.5 -11.72 274.24 -11.34 273.72 -11.1C273.2 -10.86 272.34 -10.74 271.14 -10.74C269.02 -10.74 266.71 -11.06 264.21 -11.7C261.71 -12.34 259.34 -13.3 257.1 -14.58L257.1 -2.22C258.86 -1.26 261.14 -0.5 263.94 0.06Z"></path></g><g id="SvgjsG104867" class="text" transform="translate(443.5934, 98.8942) scale(1)" light-content="false" fill="#b80006"><path d="M-251.94 -0.93C-250.23 -0.01 -248.32 0.45 -246.22 0.45C-244.13 0.45 -242.23 -0.01 -240.54 -0.93C-238.85 -1.85 -237.52 -3.13 -236.53 -4.78C-235.55 -6.43 -235.06 -8.33 -235.06 -10.47C-235.06 -12.61 -235.55 -14.51 -236.53 -16.17C-237.52 -17.83 -238.85 -19.12 -240.54 -20.04C-242.23 -20.96 -244.12 -21.42 -246.22 -21.42C-248.32 -21.42 -250.23 -20.96 -251.94 -20.04C-253.65 -19.12 -255 -17.83 -255.97 -16.17C-256.96 -14.51 -257.44 -12.61 -257.44 -10.47C-257.44 -8.33 -256.96 -6.44 -255.97 -4.78C-254.99 -3.13 -253.65 -1.85 -251.94 -0.93ZM-242.94 -4.57C-243.93 -4.03 -245.02 -3.75 -246.22 -3.75C-247.44 -3.75 -248.55 -4.02 -249.55 -4.57C-250.56 -5.12 -251.35 -5.9 -251.92 -6.91C-252.5 -7.92 -252.79 -9.11 -252.79 -10.47C-252.79 -11.81 -252.5 -12.98 -251.92 -13.99C-251.35 -15 -250.56 -15.78 -249.57 -16.33C-248.58 -16.88 -247.47 -17.16 -246.22 -17.16C-245.01 -17.16 -243.9 -16.88 -242.91 -16.33C-241.92 -15.79 -241.14 -15 -240.57 -13.99C-240 -12.99 -239.71 -11.81 -239.71 -10.47C-239.71 -9.11 -240.01 -7.92 -240.58 -6.91C-241.16 -5.9 -241.95 -5.12 -242.94 -4.57Z M-230.35 -1.96C-228.79 -0.35 -226.48 0.45 -223.42 0.45C-220.37 0.45 -218.07 -0.35 -216.52 -1.96C-214.99 -3.57 -214.21 -5.74 -214.21 -8.46L-214.21 -20.97L-218.77 -20.97L-218.77 -8.4C-218.77 -6.88 -219.19 -5.72 -220.02 -4.92C-220.85 -4.12 -221.98 -3.72 -223.42 -3.72C-224.88 -3.72 -226.03 -4.12 -226.87 -4.92C-227.71 -5.72 -228.13 -6.88 -228.13 -8.4L-228.13 -20.97L-232.69 -20.97L-232.69 -8.46C-232.69 -5.74 -231.91 -3.58 -230.35 -1.96Z M-211.21 -20.97L-211.21 0L-206.65 0L-206.65 -7.11L-203.08 -7.11L-199.39 0L-194.71 0L-198.7 -7.68C-197.38 -8.18 -196.36 -8.97 -195.64 -10.06C-194.92 -11.16 -194.56 -12.48 -194.56 -14.04C-194.56 -16.28 -195.23 -17.99 -196.56 -19.18C-197.89 -20.38 -199.74 -20.97 -202.12 -20.97ZM-202.93 -10.92L-206.65 -10.92L-206.65 -17.16L-202.93 -17.16C-201.75 -17.16 -200.83 -16.93 -200.17 -16.45C-199.51 -15.98 -199.18 -15.18 -199.18 -14.04C-199.18 -12.96 -199.52 -12.17 -200.19 -11.67C-200.86 -11.17 -201.78 -10.92 -202.93 -10.92Z M-176.5 -17.16L-176.5 0L-171.94 0L-171.94 -17.16L-165.82 -17.16L-165.82 -20.97L-182.62 -20.97L-182.62 -17.16Z M-163.81 -20.97L-163.81 0L-149.27 0L-149.27 -3.81L-159.25 -3.81L-159.25 -8.64L-151.9 -8.64L-151.9 -12.3L-159.25 -12.3L-159.25 -17.16L-149.27 -17.16L-149.27 -20.97Z M-142.69 -0.88C-140.97 0.01 -138.99 0.45 -136.75 0.45C-133.6 0.45 -131.1 -0.23 -129.25 -1.59L-129.25 -5.91C-130.24 -5.13 -131.29 -4.57 -132.43 -4.21C-133.57 -3.87 -134.88 -3.69 -136.36 -3.69C-138.52 -3.69 -140.25 -4.29 -141.52 -5.5C-142.81 -6.71 -143.44 -8.37 -143.44 -10.47C-143.44 -12.55 -142.81 -14.19 -141.54 -15.4C-140.27 -16.61 -138.54 -17.22 -136.36 -17.22C-134.92 -17.22 -133.64 -17.05 -132.51 -16.72C-131.38 -16.39 -130.37 -15.86 -129.49 -15.12L-129.49 -19.44C-131.44 -20.76 -133.86 -21.42 -136.75 -21.42C-138.99 -21.42 -140.97 -20.98 -142.69 -20.08C-144.41 -19.19 -145.74 -17.92 -146.68 -16.27C-147.62 -14.62 -148.09 -12.69 -148.09 -10.47C-148.09 -8.25 -147.63 -6.32 -146.68 -4.68C-145.74 -3.04 -144.41 -1.77 -142.69 -0.88Z M-126.7 -20.97L-126.7 0L-122.14 0L-122.14 -8.79L-112.99 -8.79L-112.99 0L-108.43 0L-108.43 -20.97L-112.99 -20.97L-112.99 -12.57L-122.14 -12.57L-122.14 -20.97Z M-105.31 -20.97L-105.31 0L-100.75 0L-100.75 -13.56L-91.96 0L-87.55 0L-87.55 -20.97L-92.11 -20.97L-92.11 -7.41L-100.87 -20.97Z M-79.53 -0.93C-77.82 -0.01 -75.91 0.45 -73.81 0.45C-71.72 0.45 -69.82 -0.01 -68.13 -0.93C-66.44 -1.85 -65.11 -3.13 -64.12 -4.78C-63.14 -6.43 -62.65 -8.33 -62.65 -10.47C-62.65 -12.61 -63.14 -14.51 -64.12 -16.17C-65.11 -17.83 -66.44 -19.12 -68.13 -20.04C-69.82 -20.96 -71.71 -21.42 -73.81 -21.42C-75.91 -21.42 -77.82 -20.96 -79.53 -20.04C-81.24 -19.12 -82.59 -17.83 -83.56 -16.17C-84.55 -14.51 -85.03 -12.61 -85.03 -10.47C-85.03 -8.33 -84.55 -6.44 -83.56 -4.78C-82.58 -3.13 -81.24 -1.85 -79.53 -0.93ZM-70.53 -4.57C-71.52 -4.03 -72.61 -3.75 -73.81 -3.75C-75.03 -3.75 -76.14 -4.02 -77.14 -4.57C-78.15 -5.12 -78.94 -5.9 -79.51 -6.91C-80.09 -7.92 -80.39 -9.11 -80.39 -10.47C-80.39 -11.81 -80.09 -12.98 -79.51 -13.99C-78.94 -15 -78.15 -15.78 -77.16 -16.33C-76.17 -16.88 -75.06 -17.16 -73.81 -17.16C-72.6 -17.16 -71.49 -16.88 -70.5 -16.33C-69.51 -15.79 -68.73 -15 -68.16 -13.99C-67.59 -12.99 -67.3 -11.81 -67.3 -10.47C-67.3 -9.11 -67.6 -7.92 -68.17 -6.91C-68.75 -5.9 -69.54 -5.12 -70.53 -4.57Z M-60.13 -20.97L-60.13 0L-45.97 0L-45.97 -3.81L-55.57 -3.81L-55.57 -20.97Z M-40.77 -0.93C-39.06 -0.01 -37.15 0.45 -35.05 0.45C-32.96 0.45 -31.06 -0.01 -29.37 -0.93C-27.68 -1.85 -26.35 -3.13 -25.36 -4.78C-24.38 -6.43 -23.9 -8.33 -23.9 -10.47C-23.9 -12.61 -24.38 -14.51 -25.36 -16.17C-26.35 -17.83 -27.68 -19.12 -29.37 -20.04C-31.06 -20.96 -32.95 -21.42 -35.05 -21.42C-37.15 -21.42 -39.06 -20.96 -40.77 -20.04C-42.48 -19.12 -43.83 -17.83 -44.8 -16.17C-45.79 -14.51 -46.27 -12.61 -46.27 -10.47C-46.27 -8.33 -45.79 -6.44 -44.8 -4.78C-43.82 -3.13 -42.48 -1.85 -40.77 -0.93ZM-31.77 -4.57C-32.76 -4.03 -33.86 -3.75 -35.05 -3.75C-36.27 -3.75 -37.38 -4.02 -38.38 -4.57C-39.39 -5.12 -40.18 -5.9 -40.76 -6.91C-41.33 -7.92 -41.62 -9.11 -41.62 -10.47C-41.62 -11.81 -41.33 -12.98 -40.76 -13.99C-40.18 -15 -39.39 -15.78 -38.4 -16.33C-37.41 -16.88 -36.3 -17.16 -35.05 -17.16C-33.84 -17.16 -32.73 -16.88 -31.74 -16.33C-30.75 -15.79 -29.97 -15 -29.4 -13.99C-28.83 -12.99 -28.54 -11.81 -28.54 -10.47C-28.54 -9.11 -28.84 -7.92 -29.41 -6.91C-29.99 -5.9 -30.78 -5.12 -31.77 -4.57Z M-16.57 -0.88C-14.85 0.01 -12.87 0.45 -10.63 0.45C-7.39 0.45 -4.78 -0.23 -2.8 -1.59L-2.8 -11.7L-10.6 -11.7L-10.6 -8.34L-7.21 -8.34L-7.21 -4.29C-8.13 -3.85 -9.21 -3.63 -10.45 -3.63C-11.82 -3.63 -13.02 -3.91 -14.05 -4.47C-15.09 -5.03 -15.9 -5.83 -16.47 -6.85C-17.04 -7.89 -17.32 -9.09 -17.32 -10.47C-17.32 -11.83 -17.02 -13.02 -16.39 -14.04C-15.77 -15.06 -14.93 -15.84 -13.86 -16.39C-12.79 -16.94 -11.59 -17.22 -10.24 -17.22C-8.8 -17.22 -7.52 -17.05 -6.39 -16.72C-5.26 -16.39 -4.25 -15.87 -3.37 -15.15L-3.37 -19.5C-4.36 -20.16 -5.43 -20.65 -6.6 -20.95C-7.77 -21.26 -9.12 -21.42 -10.63 -21.42C-12.87 -21.42 -14.85 -20.98 -16.57 -20.08C-18.29 -19.19 -19.62 -17.92 -20.56 -16.27C-21.5 -14.62 -21.97 -12.69 -21.97 -10.47C-21.97 -8.25 -21.51 -6.32 -20.56 -4.68C-19.62 -3.04 -18.29 -1.77 -16.57 -0.88Z M5.48 -7.98L5.48 0L9.95 0L9.95 -7.98L17.81 -20.97L12.98 -20.97L7.73 -12.24L2.65 -20.97L-2.2 -20.97Z M20.25 -0.48C20.58 -0.16 20.99 0 21.47 0C21.95 0 22.35 -0.16 22.7 -0.48C23.03 -0.8 23.21 -1.2 23.21 -1.68C23.21 -2.16 23.03 -2.57 22.7 -2.91C22.35 -3.25 21.95 -3.42 21.47 -3.42C21 -3.42 20.6 -3.25 20.27 -2.91C19.93 -2.57 19.76 -2.16 19.76 -1.68C19.76 -1.2 19.92 -0.8 20.25 -0.48Z M43.31 -7.98L43.31 0L47.78 0L47.78 -7.98L55.64 -20.97L50.81 -20.97L45.56 -12.24L40.49 -20.97L35.63 -20.97Z M60.54 -0.93C62.25 -0.01 64.16 0.45 66.26 0.45C68.35 0.45 70.25 -0.01 71.94 -0.93C73.63 -1.85 74.96 -3.13 75.94 -4.78C76.93 -6.43 77.41 -8.33 77.41 -10.47C77.41 -12.61 76.93 -14.51 75.94 -16.17C74.96 -17.83 73.63 -19.12 71.94 -20.04C70.25 -20.96 68.35 -21.42 66.26 -21.42C64.16 -21.42 62.25 -20.96 60.54 -20.04C58.83 -19.12 57.48 -17.83 56.51 -16.17C55.52 -14.51 55.04 -12.61 55.04 -10.47C55.04 -8.33 55.52 -6.44 56.51 -4.78C57.49 -3.13 58.83 -1.85 60.54 -0.93ZM69.54 -4.57C68.55 -4.03 67.46 -3.75 66.26 -3.75C65.04 -3.75 63.93 -4.02 62.93 -4.57C61.92 -5.12 61.13 -5.9 60.55 -6.91C59.98 -7.92 59.68 -9.11 59.68 -10.47C59.68 -11.81 59.98 -12.98 60.55 -13.99C61.13 -15 61.92 -15.78 62.91 -16.33C63.9 -16.88 65.01 -17.16 66.26 -17.16C67.47 -17.16 68.58 -16.88 69.57 -16.33C70.56 -15.79 71.34 -15 71.91 -13.99C72.48 -12.99 72.77 -11.81 72.77 -10.47C72.77 -9.11 72.47 -7.92 71.9 -6.91C71.32 -5.9 70.53 -5.12 69.54 -4.57Z M82.12 -1.96C83.68 -0.35 85.99 0.45 89.06 0.45C92.11 0.45 94.41 -0.35 95.96 -1.96C97.49 -3.57 98.26 -5.74 98.26 -8.46L98.26 -20.97L93.71 -20.97L93.71 -8.4C93.71 -6.88 93.29 -5.72 92.46 -4.92C91.63 -4.12 90.49 -3.72 89.06 -3.72C87.6 -3.72 86.45 -4.12 85.6 -4.92C84.76 -5.72 84.35 -6.88 84.35 -8.4L84.35 -20.97L79.79 -20.97L79.79 -8.46C79.79 -5.74 80.57 -3.58 82.12 -1.96Z M101.26 -20.97L101.26 0L105.82 0L105.82 -7.11L109.4 -7.11L113.09 0L117.76 0L113.78 -7.68C115.1 -8.18 116.12 -8.97 116.84 -10.06C117.56 -11.16 117.92 -12.48 117.92 -14.04C117.92 -16.28 117.25 -17.99 115.92 -19.18C114.59 -20.38 112.74 -20.97 110.35 -20.97ZM109.54 -10.92L105.82 -10.92L105.82 -17.16L109.54 -17.16C110.73 -17.16 111.65 -16.93 112.31 -16.45C112.96 -15.98 113.29 -15.18 113.29 -14.04C113.29 -12.96 112.96 -12.17 112.29 -11.67C111.62 -11.17 110.7 -10.92 109.54 -10.92Z M133.45 0.09C134.71 0.33 135.98 0.45 137.26 0.45C139.98 0.45 142.03 -0.08 143.4 -1.14C144.77 -2.2 145.45 -3.68 145.45 -5.58C145.45 -6.68 145.27 -7.6 144.89 -8.35C144.51 -9.1 143.91 -9.75 143.11 -10.3C142.32 -10.86 141.21 -11.43 139.79 -12.03C138.57 -12.53 137.68 -12.91 137.14 -13.17C136.6 -13.43 136.18 -13.73 135.89 -14.07C135.58 -14.41 135.43 -14.84 135.43 -15.36C135.43 -16.08 135.76 -16.63 136.39 -17.02C137.03 -17.41 137.91 -17.61 139.04 -17.61C140.79 -17.61 142.55 -17.17 144.31 -16.29L144.31 -20.19C143.4 -20.61 142.45 -20.92 141.49 -21.12C140.54 -21.32 139.44 -21.42 138.2 -21.42C136.68 -21.42 135.34 -21.17 134.17 -20.67C133.02 -20.17 132.12 -19.46 131.48 -18.55C130.84 -17.65 130.52 -16.6 130.51 -15.42C130.51 -13.96 130.95 -12.73 131.83 -11.74C132.72 -10.75 134.13 -9.86 136.09 -9.06C137.28 -8.58 138.15 -8.19 138.72 -7.9C139.29 -7.61 139.73 -7.29 140.02 -6.93C140.32 -6.57 140.48 -6.13 140.48 -5.61C140.48 -4.89 140.17 -4.33 139.57 -3.93C138.98 -3.53 138.09 -3.33 136.93 -3.33C135.89 -3.33 134.8 -3.46 133.67 -3.72C132.52 -3.98 131.42 -4.37 130.36 -4.89L130.36 -0.87C131.16 -0.47 132.2 -0.15 133.45 0.09Z M150.2 -1.96C151.76 -0.35 154.07 0.45 157.12 0.45C160.18 0.45 162.48 -0.35 164.02 -1.96C165.56 -3.57 166.33 -5.74 166.33 -8.46L166.33 -20.97L161.77 -20.97L161.77 -8.4C161.77 -6.88 161.36 -5.72 160.53 -4.92C159.7 -4.12 158.57 -3.72 157.12 -3.72C155.67 -3.72 154.51 -4.12 153.67 -4.92C152.83 -5.72 152.42 -6.88 152.42 -8.4L152.42 -20.97L147.85 -20.97L147.85 -8.46C147.85 -5.74 148.64 -3.58 150.2 -1.96Z M174.14 -0.88C175.86 0.01 177.84 0.45 180.08 0.45C183.23 0.45 185.73 -0.23 187.58 -1.59L187.58 -5.91C186.59 -5.13 185.54 -4.57 184.4 -4.21C183.26 -3.87 181.95 -3.69 180.46 -3.69C178.3 -3.69 176.58 -4.29 175.3 -5.5C174.02 -6.71 173.39 -8.37 173.39 -10.47C173.39 -12.55 174.02 -14.19 175.29 -15.4C176.56 -16.61 178.29 -17.22 180.46 -17.22C181.9 -17.22 183.19 -17.05 184.32 -16.72C185.45 -16.39 186.46 -15.86 187.33 -15.12L187.33 -19.44C185.39 -20.76 182.97 -21.42 180.08 -21.42C177.84 -21.42 175.86 -20.98 174.14 -20.08C172.42 -19.19 171.09 -17.92 170.15 -16.27C169.21 -14.62 168.74 -12.69 168.74 -10.47C168.74 -8.25 169.2 -6.32 170.15 -4.68C171.09 -3.04 172.42 -1.77 174.14 -0.88Z M194.18 -0.88C195.9 0.01 197.88 0.45 200.11 0.45C203.27 0.45 205.77 -0.23 207.61 -1.59L207.61 -5.91C206.63 -5.13 205.58 -4.57 204.43 -4.21C203.3 -3.87 201.99 -3.69 200.5 -3.69C198.34 -3.69 196.62 -4.29 195.34 -5.5C194.06 -6.71 193.43 -8.37 193.43 -10.47C193.43 -12.55 194.06 -14.19 195.33 -15.4C196.6 -16.61 198.33 -17.22 200.5 -17.22C201.95 -17.22 203.23 -17.05 204.36 -16.72C205.49 -16.39 206.5 -15.86 207.37 -15.12L207.37 -19.44C205.43 -20.76 203.01 -21.42 200.11 -21.42C197.88 -21.42 195.9 -20.98 194.18 -20.08C192.46 -19.19 191.13 -17.92 190.18 -16.27C189.25 -14.62 188.77 -12.69 188.77 -10.47C188.77 -8.25 189.24 -6.32 190.18 -4.68C191.13 -3.04 192.46 -1.77 194.18 -0.88Z M210.17 -20.97L210.17 0L224.71 0L224.71 -3.81L214.73 -3.81L214.73 -8.64L222.08 -8.64L222.08 -12.3L214.73 -12.3L214.73 -17.16L224.71 -17.16L224.71 -20.97Z M229.43 0.09C230.69 0.33 231.95 0.45 233.24 0.45C235.95 0.45 238 -0.08 239.37 -1.14C240.74 -2.2 241.43 -3.68 241.43 -5.58C241.43 -6.68 241.24 -7.6 240.86 -8.35C240.48 -9.1 239.88 -9.75 239.09 -10.3C238.29 -10.86 237.18 -11.43 235.76 -12.03C234.54 -12.53 233.66 -12.91 233.12 -13.17C232.58 -13.43 232.16 -13.73 231.86 -14.07C231.56 -14.41 231.41 -14.84 231.41 -15.36C231.41 -16.08 231.73 -16.63 232.37 -17.02C233 -17.41 233.88 -17.61 235.01 -17.61C236.76 -17.61 238.52 -17.17 240.29 -16.29L240.29 -20.19C239.37 -20.61 238.43 -20.92 237.47 -21.12C236.51 -21.32 235.41 -21.42 234.17 -21.42C232.65 -21.42 231.31 -21.17 230.15 -20.67C228.99 -20.17 228.09 -19.46 227.45 -18.55C226.81 -17.65 226.49 -16.6 226.49 -15.42C226.49 -13.96 226.92 -12.73 227.81 -11.74C228.69 -10.75 230.1 -9.86 232.07 -9.06C233.25 -8.58 234.12 -8.19 234.69 -7.9C235.26 -7.61 235.7 -7.29 236 -6.93C236.3 -6.57 236.45 -6.13 236.45 -5.61C236.45 -4.89 236.15 -4.33 235.55 -3.93C234.95 -3.53 234.06 -3.33 232.91 -3.33C231.86 -3.33 230.78 -3.46 229.64 -3.72C228.5 -3.98 227.39 -4.37 226.34 -4.89L226.34 -0.87C227.13 -0.47 228.17 -0.15 229.43 0.09Z M245.42 0.09C246.68 0.33 247.94 0.45 249.23 0.45C251.94 0.45 253.99 -0.08 255.36 -1.14C256.73 -2.2 257.41 -3.68 257.41 -5.58C257.41 -6.68 257.23 -7.6 256.84 -8.35C256.47 -9.1 255.87 -9.75 255.08 -10.3C254.28 -10.86 253.17 -11.43 251.75 -12.03C250.53 -12.53 249.65 -12.91 249.11 -13.17C248.57 -13.43 248.15 -13.73 247.85 -14.07C247.55 -14.41 247.4 -14.84 247.4 -15.36C247.4 -16.08 247.72 -16.63 248.36 -17.02C248.99 -17.41 249.87 -17.61 251 -17.61C252.75 -17.61 254.51 -17.17 256.27 -16.29L256.27 -20.19C255.36 -20.61 254.42 -20.92 253.46 -21.12C252.5 -21.32 251.4 -21.42 250.16 -21.42C248.64 -21.42 247.3 -21.17 246.14 -20.67C244.98 -20.17 244.08 -19.46 243.44 -18.55C242.8 -17.65 242.48 -16.6 242.48 -15.42C242.48 -13.96 242.91 -12.73 243.8 -11.74C244.68 -10.75 246.09 -9.86 248.05 -9.06C249.24 -8.58 250.11 -8.19 250.68 -7.9C251.25 -7.61 251.69 -7.29 251.99 -6.93C252.29 -6.57 252.44 -6.13 252.44 -5.61C252.44 -4.89 252.14 -4.33 251.54 -3.93C250.94 -3.53 250.05 -3.33 248.9 -3.33C247.85 -3.33 246.77 -3.46 245.63 -3.72C244.49 -3.98 243.38 -4.37 242.33 -4.89L242.33 -0.87C243.12 -0.47 244.16 -0.15 245.42 0.09Z"></path></g></g></g></svg>